<svg width="24" height="30" viewBox="0 0 24 30" fill="none" xmlns="http://www.w3.org/2000/svg">
<path d="M18.3529 22.0588H5.64706V12.8824C5.64706 9.35294 8.47059 6.52941 12 6.52941C15.5294 6.52941 18.3529 9.35294 18.3529 12.8824V22.0588ZM21.1765 20.6471V12.8824C21.1765 8.54824 18.1553 4.92 14.1176 3.96V3C14.1176 2.43837 13.8945 1.89974 13.4974 1.5026C13.1003 1.10546 12.5616 0.882355 12 0.882355C11.4384 0.882355 10.8997 1.10546 10.5026 1.5026C10.1055 1.89974 9.88235 2.43837 9.88235 3V3.96C5.83059 4.92 2.82353 8.54824 2.82353 12.8824V20.6471L0 23.4706V24.8824H24V23.4706L21.1765 20.6471ZM12 29.1176C12.7488 29.1176 13.467 28.8202 13.9965 28.2907C14.5261 27.7611 14.8235 27.043 14.8235 26.2941H9.17647C9.17647 27.043 9.47395 27.7611 10.0035 28.2907C10.533 28.8202 11.2512 29.1176 12 29.1176Z" fill="#D0D0D0"/>
</svg>
