<svg width="34" height="44" viewBox="0 0 34 44" fill="none" xmlns="http://www.w3.org/2000/svg">
<path d="M17 42C25.235 42 32 35.474 32 27.098C32 25.042 31.895 22.838 30.755 19.412C29.615 15.986 29.386 15.544 28.181 13.428C27.666 17.745 24.911 19.545 24.211 20.083C24.211 19.523 22.545 13.336 20.018 9.633C17.537 6 14.163 3.617 12.185 2C12.185 5.07 11.322 9.634 10.085 11.96C8.849 14.285 8.617 14.37 7.072 16.1C5.528 17.83 4.819 18.365 3.527 20.465C2.236 22.565 2 25.362 2 27.418C2 35.794 8.765 42 17 42Z" stroke="black" stroke-width="4" stroke-linejoin="round"/>
</svg>
