<svg width="18" height="18" viewBox="0 0 18 18" fill="none" xmlns="http://www.w3.org/2000/svg">
<path d="M9 18C4.0293 18 0 13.9707 0 9C0 4.0293 4.0293 0 9 0C13.9707 0 18 4.0293 18 9C18 13.9707 13.9707 18 9 18ZM6.939 15.9003C6.05107 14.0169 5.53668 11.9792 5.4243 9.9H1.8558C2.03093 11.285 2.60453 12.5893 3.50691 13.6545C4.40929 14.7197 5.60161 15.4999 6.939 15.9003V15.9003ZM7.227 9.9C7.3629 12.0951 7.9902 14.157 9 15.9768C10.0371 14.1089 10.6429 12.0325 10.773 9.9H7.227V9.9ZM16.1442 9.9H12.5757C12.4633 11.9792 11.9489 14.0169 11.061 15.9003C12.3984 15.4999 13.5907 14.7197 14.4931 13.6545C15.3955 12.5893 15.9691 11.285 16.1442 9.9V9.9ZM1.8558 8.1H5.4243C5.53668 6.02081 6.05107 3.98312 6.939 2.0997C5.60161 2.50009 4.40929 3.28028 3.50691 4.34547C2.60453 5.41065 2.03093 6.71499 1.8558 8.1V8.1ZM7.2279 8.1H10.7721C10.6423 5.96754 10.0368 3.89118 9 2.0232C7.96291 3.8911 7.3571 5.96747 7.227 8.1H7.2279ZM11.061 2.0997C11.9489 3.98312 12.4633 6.02081 12.5757 8.1H16.1442C15.9691 6.71499 15.3955 5.41065 14.4931 4.34547C13.5907 3.28028 12.3984 2.50009 11.061 2.0997V2.0997Z" fill="#D0D0D0"/>
</svg>
