<svg width="18" height="18" viewBox="0 0 18 18" fill="none" xmlns="http://www.w3.org/2000/svg">
<path d="M7.9695 0.378115C8.248 0.135296 8.61673 0 9 0C9.38327 0 9.752 0.135296 10.0305 0.378115L17.2965 6.71226C17.7465 7.10373 18 7.65013 18 8.22005V15.925C18 16.4754 17.7629 17.0031 17.341 17.3923C16.919 17.7814 16.3467 18 15.75 18H12.75C12.4544 18 12.1617 17.9463 11.8886 17.8419C11.6155 17.7376 11.3674 17.5846 11.1585 17.3918C10.9495 17.1989 10.7838 16.97 10.6708 16.7181C10.5579 16.4662 10.4998 16.1963 10.5 15.9237V12.4654C10.5 12.282 10.421 12.106 10.2803 11.9763C10.1397 11.8466 9.94891 11.7738 9.75 11.7738H8.25C8.05109 11.7738 7.86032 11.8466 7.71967 11.9763C7.57902 12.106 7.5 12.282 7.5 12.4654V15.9237C7.5 16.474 7.26295 17.0017 6.84099 17.3909C6.41903 17.78 5.84674 17.9986 5.25 17.9986H2.25C1.65326 17.9986 1.08097 17.78 0.65901 17.3909C0.237053 17.0017 0 16.474 0 15.9237V8.21867C0 7.64875 0.255 7.10235 0.705 6.71087L7.9695 0.375349V0.378115ZM9 1.38239L1.734 7.71792C1.66024 7.7824 1.60146 7.86005 1.56123 7.94613C1.52101 8.03221 1.50017 8.12494 1.5 8.21867V15.9237C1.5 16.1071 1.57902 16.283 1.71967 16.4127C1.86032 16.5424 2.05109 16.6153 2.25 16.6153H5.25C5.44891 16.6153 5.63968 16.5424 5.78033 16.4127C5.92098 16.283 6 16.1071 6 15.9237V12.4654C6 11.9151 6.23705 11.3873 6.65901 10.9982C7.08097 10.6091 7.65326 10.3905 8.25 10.3905H9.75C10.3467 10.3905 10.919 10.6091 11.341 10.9982C11.7629 11.3873 12 11.9151 12 12.4654V15.9237C12 16.1071 12.079 16.283 12.2197 16.4127C12.3603 16.5424 12.5511 16.6153 12.75 16.6153H15.75C15.9489 16.6153 16.1397 16.5424 16.2803 16.4127C16.421 16.283 16.5 16.1071 16.5 15.9237V8.21867C16.5 8.1247 16.4793 8.03172 16.4391 7.94538C16.3988 7.85905 16.3399 7.78118 16.266 7.71653L9 1.38239Z" fill="#F3F3F3"/>
</svg>
