<svg width="24" height="25" viewBox="0 0 24 25" fill="none" xmlns="http://www.w3.org/2000/svg">
<path fill-rule="evenodd" clip-rule="evenodd" d="M7.465 1.60396C8.638 1.54996 9.012 1.53796 12 1.53796C14.988 1.53796 15.362 1.55096 16.534 1.60396C17.706 1.65696 18.506 1.84396 19.206 2.11496C19.939 2.39196 20.604 2.82496 21.154 3.38496C21.714 3.93396 22.146 4.59796 22.422 5.33196C22.694 6.03196 22.88 6.83196 22.934 8.00196C22.988 9.17696 23 9.55096 23 12.538C23 15.526 22.987 15.9 22.934 17.073C22.881 18.243 22.694 19.043 22.422 19.743C22.146 20.4771 21.7133 21.1422 21.154 21.692C20.604 22.252 19.939 22.684 19.206 22.96C18.506 23.232 17.706 23.418 16.536 23.472C15.362 23.526 14.988 23.538 12 23.538C9.012 23.538 8.638 23.525 7.465 23.472C6.295 23.419 5.495 23.232 4.795 22.96C4.06092 22.6839 3.39582 22.2512 2.846 21.692C2.28638 21.1426 1.85331 20.4778 1.577 19.744C1.306 19.044 1.12 18.244 1.066 17.074C1.012 15.899 1 15.525 1 12.538C1 9.54996 1.013 9.17596 1.066 8.00396C1.119 6.83196 1.306 6.03196 1.577 5.33196C1.85372 4.59805 2.28712 3.93328 2.847 3.38396C3.39604 2.82447 4.06047 2.39141 4.794 2.11496C5.494 1.84396 6.294 1.65796 7.464 1.60396H7.465ZM16.445 3.58396C15.285 3.53096 14.937 3.51996 12 3.51996C9.063 3.51996 8.715 3.53096 7.555 3.58396C6.482 3.63296 5.9 3.81196 5.512 3.96296C4.999 4.16296 4.632 4.39996 4.247 4.78496C3.88205 5.14002 3.60118 5.57225 3.425 6.04996C3.274 6.43796 3.095 7.01996 3.046 8.09296C2.993 9.25296 2.982 9.60096 2.982 12.538C2.982 15.475 2.993 15.823 3.046 16.983C3.095 18.056 3.274 18.638 3.425 19.026C3.601 19.503 3.882 19.936 4.247 20.291C4.602 20.656 5.035 20.937 5.512 21.113C5.9 21.264 6.482 21.443 7.555 21.492C8.715 21.545 9.062 21.556 12 21.556C14.938 21.556 15.285 21.545 16.445 21.492C17.518 21.443 18.1 21.264 18.488 21.113C19.001 20.913 19.368 20.676 19.753 20.291C20.118 19.936 20.399 19.503 20.575 19.026C20.726 18.638 20.905 18.056 20.954 16.983C21.007 15.823 21.018 15.475 21.018 12.538C21.018 9.60096 21.007 9.25296 20.954 8.09296C20.905 7.01996 20.726 6.43796 20.575 6.04996C20.375 5.53696 20.138 5.16996 19.753 4.78496C19.3979 4.42004 18.9657 4.13917 18.488 3.96296C18.1 3.81196 17.518 3.63296 16.445 3.58396ZM10.595 15.929C11.3797 16.2556 12.2534 16.2997 13.0669 16.0537C13.8805 15.8077 14.5834 15.2869 15.0556 14.5802C15.5278 13.8735 15.7401 13.0248 15.656 12.1791C15.572 11.3333 15.197 10.5429 14.595 9.94296C14.2112 9.55944 13.7472 9.26578 13.2363 9.08311C12.7255 8.90045 12.1804 8.83332 11.6405 8.88658C11.1006 8.93983 10.5792 9.11214 10.1138 9.39109C9.64845 9.67005 9.25074 10.0487 8.9493 10.4998C8.64786 10.9509 8.45019 11.4633 8.37052 11.9999C8.29084 12.5366 8.33115 13.0843 8.48854 13.6035C8.64593 14.1227 8.91648 14.6006 9.28072 15.0027C9.64496 15.4048 10.0938 15.7211 10.595 15.929ZM8.002 8.53996C8.52702 8.01494 9.15032 7.59847 9.8363 7.31433C10.5223 7.03018 11.2575 6.88394 12 6.88394C12.7425 6.88394 13.4777 7.03018 14.1637 7.31432C14.8497 7.59847 15.473 8.01494 15.998 8.53996C16.523 9.06499 16.9395 9.68828 17.2236 10.3743C17.5078 11.0602 17.654 11.7955 17.654 12.538C17.654 13.2805 17.5078 14.0157 17.2236 14.7017C16.9395 15.3876 16.523 16.0109 15.998 16.536C14.9377 17.5963 13.4995 18.192 12 18.192C10.5005 18.192 9.06234 17.5963 8.002 16.536C6.94166 15.4756 6.34597 14.0375 6.34597 12.538C6.34597 11.0384 6.94166 9.6003 8.002 8.53996ZM18.908 7.72596C19.0381 7.60323 19.1423 7.45564 19.2143 7.29194C19.2863 7.12823 19.3248 6.95173 19.3274 6.77289C19.33 6.59406 19.2967 6.41651 19.2295 6.25077C19.1622 6.08504 19.0624 5.93447 18.936 5.808C18.8095 5.68153 18.6589 5.58172 18.4932 5.51448C18.3275 5.44724 18.1499 5.41394 17.9711 5.41655C17.7922 5.41915 17.6157 5.45762 17.452 5.52966C17.2883 5.6017 17.1407 5.70586 17.018 5.83596C16.7793 6.08899 16.6486 6.42509 16.6537 6.77289C16.6588 7.1207 16.7992 7.45284 17.0452 7.69881C17.2911 7.94477 17.6233 8.08519 17.9711 8.09026C18.3189 8.09533 18.655 7.96465 18.908 7.72596Z" fill="#121212"/>
</svg>
