<svg width="18" height="18" viewBox="0 0 18 18" fill="none" xmlns="http://www.w3.org/2000/svg">
<path d="M18 16.7143C18 17.0553 17.8815 17.3823 17.6705 17.6234C17.4595 17.8645 17.1734 18 16.875 18L1.125 18C0.826632 18 0.540482 17.8645 0.329504 17.6234C0.118527 17.3823 8.25902e-08 17.0553 1.12401e-07 16.7143C1.42211e-07 16.3733 0.118527 16.0463 0.329504 15.8051C0.540482 15.564 0.826632 15.4286 1.125 15.4286L16.875 15.4286C17.1734 15.4286 17.4595 15.564 17.6705 15.8051C17.8815 16.0463 18 16.3733 18 16.7143Z" fill="#F3F3F3"/>
<path d="M18 1.2857C18 1.62669 17.8815 1.95372 17.6705 2.19483C17.4595 2.43595 17.1734 2.57141 16.875 2.57141L1.125 2.57141C0.826632 2.57141 0.540482 2.43595 0.329504 2.19483C0.118527 1.95371 8.25902e-08 1.62669 1.12401e-07 1.28569C1.42211e-07 0.944702 0.118527 0.617674 0.329504 0.376556C0.540482 0.135437 0.826632 -2.05748e-05 1.125 -2.05487e-05L16.875 -1.91718e-05C17.1734 -1.91458e-05 17.4595 0.135439 17.6705 0.376557C17.8815 0.617676 18 0.944703 18 1.2857Z" fill="#F3F3F3"/>
<path d="M16.875 10.2857C17.1734 10.2857 17.4595 10.1503 17.6705 9.90916C17.8815 9.66804 18 9.34101 18 9.00002C18 8.65903 17.8815 8.332 17.6705 8.09089C17.4595 7.84977 17.1734 7.71431 16.875 7.71431L7.875 7.71431C7.57663 7.71431 7.29048 7.84977 7.07951 8.09088C6.86853 8.332 6.75 8.65903 6.75 9.00002C6.75 9.34101 6.86853 9.66804 7.0795 9.90916C7.29048 10.1503 7.57663 10.2857 7.875 10.2857L16.875 10.2857Z" fill="#F3F3F3"/>
</svg>
