<svg width="24" height="24" viewBox="0 0 24 24" fill="none" xmlns="http://www.w3.org/2000/svg">
<path d="M0 24V2.66667C0 1.95942 0.280951 1.28115 0.781048 0.781048C1.28115 0.280951 1.95942 0 2.66667 0H21.3333C22.0406 0 22.7189 0.280951 23.219 0.781048C23.719 1.28115 24 1.95942 24 2.66667V16C24 16.7072 23.719 17.3855 23.219 17.8856C22.7189 18.3857 22.0406 18.6667 21.3333 18.6667H8C7.42267 18.6667 6.86133 18.8533 6.4 19.2L0 24ZM2.66667 2.66667V18.6667L5.512 16.5333C5.97333 16.1867 6.53467 15.9987 7.112 16H21.3333V2.66667H2.66667Z" fill="#D0D0D0"/>
</svg>
