<svg width="6" height="24" viewBox="0 0 6 24" fill="none" xmlns="http://www.w3.org/2000/svg">
<path d="M0.333339 12C0.333339 13.4727 1.52725 14.6666 3.00001 14.6666C4.47276 14.6666 5.66667 13.4727 5.66667 12C5.66667 10.5272 4.47276 9.33331 3.00001 9.33331C1.52725 9.33331 0.333339 10.5272 0.333339 12Z" fill="#F3F3F3"/>
<path d="M0.333339 21.3334C0.333339 22.8061 1.52725 24 3.00001 24C4.47276 24 5.66667 22.8061 5.66667 21.3334C5.66667 19.8606 4.47276 18.6667 3.00001 18.6667C1.52725 18.6667 0.333339 19.8606 0.333339 21.3334Z" fill="#F3F3F3"/>
<path d="M0.333339 2.66667C0.333339 4.13943 1.52725 5.33333 3.00001 5.33333C4.47276 5.33333 5.66667 4.13943 5.66667 2.66667C5.66667 1.19391 4.47276 -5.21873e-08 3.00001 -1.16564e-07C1.52725 -1.8094e-07 0.333339 1.19391 0.333339 2.66667Z" fill="#F3F3F3"/>
</svg>
