<svg width="24" height="6" viewBox="0 0 24 6" fill="none" xmlns="http://www.w3.org/2000/svg">
<path d="M12 5.66665C13.4728 5.66665 14.6667 4.47274 14.6667 2.99998C14.6667 1.52722 13.4728 0.333313 12 0.333313C10.5272 0.333313 9.33334 1.52722 9.33334 2.99998C9.33334 4.47274 10.5272 5.66665 12 5.66665Z" fill="#F3F3F3"/>
<path d="M21.3333 5.66665C22.8061 5.66665 24 4.47274 24 2.99998C24 1.52722 22.8061 0.333313 21.3333 0.333313C19.8606 0.333313 18.6667 1.52722 18.6667 2.99998C18.6667 4.47274 19.8606 5.66665 21.3333 5.66665Z" fill="#F3F3F3"/>
<path d="M2.66667 5.66665C4.13943 5.66665 5.33333 4.47274 5.33333 2.99998C5.33333 1.52722 4.13943 0.333313 2.66667 0.333313C1.19391 0.333313 0 1.52722 0 2.99998C0 4.47274 1.19391 5.66665 2.66667 5.66665Z" fill="#F3F3F3"/>
</svg>
