<svg width="32" height="32" viewBox="0 0 32 32" fill="none" xmlns="http://www.w3.org/2000/svg">
<path d="M31.4743 28.9507L25.4318 22.9259C27.3814 20.4422 28.4392 17.3751 28.4353 14.2176C28.4353 11.4057 27.6014 8.65683 26.0392 6.31875C24.4769 3.98067 22.2564 2.15836 19.6585 1.08226C17.0606 0.00616023 14.2019 -0.275396 11.4439 0.273194C8.68597 0.821785 6.15263 2.17588 4.16426 4.16426C2.17588 6.15263 0.821785 8.68597 0.273194 11.4439C-0.275396 14.2019 0.00616023 17.0606 1.08226 19.6585C2.15836 22.2564 3.98067 24.4769 6.31875 26.0392C8.65683 27.6014 11.4057 28.4353 14.2176 28.4353C17.3751 28.4392 20.4422 27.3814 22.9259 25.4318L28.9507 31.4743C29.1159 31.6409 29.3124 31.7731 29.529 31.8633C29.7456 31.9535 29.9779 32 30.2125 32C30.4471 32 30.6794 31.9535 30.896 31.8633C31.1125 31.7731 31.3091 31.6409 31.4743 31.4743C31.6409 31.3091 31.7731 31.1125 31.8633 30.896C31.9535 30.6794 32 30.4471 32 30.2125C32 29.9779 31.9535 29.7456 31.8633 29.529C31.7731 29.3124 31.6409 29.1159 31.4743 28.9507ZM3.55442 14.2176C3.55442 12.1087 4.1798 10.047 5.35149 8.29347C6.52318 6.53991 8.18855 5.17318 10.137 4.36611C12.0855 3.55903 14.2295 3.34786 16.2979 3.75931C18.3664 4.17075 20.2664 5.18632 21.7577 6.6776C23.249 8.16888 24.2645 10.0689 24.676 12.1374C25.0874 14.2058 24.8763 16.3498 24.0692 18.2983C23.2621 20.2467 21.8954 21.9121 20.1418 23.0838C18.3883 24.2555 16.3266 24.8809 14.2176 24.8809C11.3896 24.8809 8.67735 23.7574 6.6776 21.7577C4.67786 19.7579 3.55442 17.0457 3.55442 14.2176Z" fill="#F3F3F3"/>
</svg>
