<svg width="29" height="23" viewBox="0 0 29 23" fill="none" xmlns="http://www.w3.org/2000/svg">
<path d="M13.0502 5.82696V1.4371C13.0501 1.15286 12.965 0.875007 12.8057 0.638682C12.6464 0.402358 12.4199 0.218169 12.155 0.1094C11.8901 0.000630953 11.5986 -0.0278341 11.3174 0.0276033C11.0362 0.0830407 10.7778 0.219891 10.575 0.420855L0.425137 10.4827C0.290368 10.6161 0.183449 10.7745 0.110499 10.9489C0.0375491 11.1233 0 11.3102 0 11.499C0 11.6878 0.0375491 11.8747 0.110499 12.0491C0.183449 12.2234 0.290368 12.3819 0.425137 12.5152L10.575 22.5771C10.7775 22.7788 11.0359 22.9163 11.3174 22.9721C11.5989 23.0279 11.8907 22.9996 12.1559 22.8907C12.4211 22.7818 12.6477 22.5973 12.8069 22.3605C12.9661 22.1237 13.0508 21.8454 13.0502 21.5609V17.1106C13.462 17.0819 13.8694 17.0689 14.2725 17.0689C22.1401 17.0689 26.2189 22.2034 26.3973 22.4305C26.5801 22.6701 26.8343 22.8467 27.1239 22.9352C27.4136 23.0237 27.7239 23.0196 28.0111 22.9235C28.2992 22.8277 28.5496 22.6447 28.7271 22.4002C28.9045 22.1556 29 21.8621 29 21.5609C29 8.44592 17.2754 6.20787 13.0502 5.82696ZM14.2725 14.1941C13.3344 14.1941 12.3701 14.2588 11.4088 14.3853C11.0604 14.4316 10.7408 14.6017 10.5093 14.8639C10.2778 15.1261 10.1502 15.4628 10.1502 15.8112V18.0909L3.50056 11.499L10.1502 4.90701V7.18675C10.1502 7.9802 10.8331 8.62416 11.6321 8.62416C12.9516 8.62416 23.3973 8.91308 25.6665 17.8595C23.2682 16.1088 19.4591 14.1941 14.2725 14.1941Z" fill="#F3F3F3"/>
</svg>
