<svg width="25" height="25" viewBox="0 0 25 25" fill="none" xmlns="http://www.w3.org/2000/svg">
<path d="M15.625 23.6979H9.375C3.71875 23.6979 1.30209 21.2812 1.30209 15.625V9.37498C1.30209 3.71873 3.71875 1.30206 9.375 1.30206H15.625C21.2813 1.30206 23.6979 3.71873 23.6979 9.37498V15.625C23.6979 21.2812 21.2813 23.6979 15.625 23.6979ZM9.375 2.86456C4.57292 2.86456 2.86459 4.5729 2.86459 9.37498V15.625C2.86459 20.4271 4.57292 22.1354 9.375 22.1354H15.625C20.4271 22.1354 22.1354 20.4271 22.1354 15.625V9.37498C22.1354 4.5729 20.4271 2.86456 15.625 2.86456H9.375Z" fill="#292D32"/>
<path d="M9.375 11.1979C7.79166 11.1979 6.51041 9.91667 6.51041 8.33333C6.51041 6.75 7.79166 5.46875 9.375 5.46875C10.9583 5.46875 12.2396 6.75 12.2396 8.33333C12.2396 9.91667 10.9583 11.1979 9.375 11.1979ZM9.375 7.03125C8.65625 7.03125 8.07291 7.61458 8.07291 8.33333C8.07291 9.05208 8.65625 9.63542 9.375 9.63542C10.0937 9.63542 10.6771 9.05208 10.6771 8.33333C10.6771 7.61458 10.0937 7.03125 9.375 7.03125Z" fill="#292D32"/>
<path d="M2.78125 20.5208C2.53125 20.5208 2.28125 20.3958 2.13542 20.1771C1.89584 19.8229 1.98959 19.3333 2.35417 19.0937L7.48959 15.6458C8.61459 14.8854 10.1667 14.9791 11.1875 15.8437L11.5313 16.1458C12.0521 16.5937 12.9375 16.5937 13.4479 16.1458L17.7813 12.4271C18.8854 11.4791 20.625 11.4791 21.7396 12.4271L23.4375 13.8854C23.7604 14.1666 23.8021 14.6562 23.5208 14.9896C23.2396 15.3125 22.75 15.3541 22.4167 15.0729L20.7188 13.6146C20.1979 13.1666 19.3125 13.1666 18.7917 13.6146L14.4583 17.3333C13.3542 18.2812 11.6146 18.2812 10.5 17.3333L10.1563 17.0312C9.67709 16.625 8.88542 16.5833 8.35417 16.9479L3.21875 20.3958C3.08334 20.4791 2.92709 20.5208 2.78125 20.5208Z" fill="#292D32"/>
</svg>
